<?xml version="1.0" encoding="UTF-8" standalone="no"?>
<!DOCTYPE svg PUBLIC "-//W3C//DTD SVG 1.1//EN" "http://www.w3.org/Graphics/SVG/1.1/DTD/svg11.dtd">
<svg width="100%" height="100%" viewBox="0 0 800 800" version="1.1" xmlns="http://www.w3.org/2000/svg" xmlns:xlink="http://www.w3.org/1999/xlink" xml:space="preserve" xmlns:serif="http://www.serif.com/" style="fill-rule:evenodd;clip-rule:evenodd;stroke-linejoin:round;stroke-miterlimit:2;">
    <path d="M66.667,233.333C66.667,141.286 141.286,66.667 233.333,66.667L566.667,66.667C658.713,66.667 733.333,141.286 733.333,233.333L733.333,566.667C733.333,658.713 658.713,733.333 566.667,733.333L233.333,733.333C141.286,733.333 66.667,658.713 66.667,566.667L66.667,233.333ZM233.333,133.333C178.105,133.333 133.333,178.105 133.333,233.333L133.333,566.667C133.333,621.897 178.105,666.667 233.333,666.667L566.667,666.667C621.897,666.667 666.667,621.897 666.667,566.667L666.667,233.333C666.667,178.105 621.897,133.333 566.667,133.333L233.333,133.333ZM233.333,566.667C233.333,548.257 248.257,533.333 266.667,533.333L533.333,533.333C551.743,533.333 566.667,548.257 566.667,566.667C566.667,585.077 551.743,600 533.333,600L266.667,600C248.257,600 233.333,585.077 233.333,566.667ZM290.236,243.096C277.219,230.079 256.113,230.079 243.096,243.097C230.079,256.115 230.079,277.22 243.097,290.237L319.529,366.667L243.097,443.097C230.079,456.113 230.079,477.22 243.096,490.237C256.113,503.253 277.219,503.253 290.236,490.237L390.24,390.237C396.493,383.987 400.003,375.507 400.003,366.667C400.003,357.827 396.493,349.347 390.24,343.097L290.236,243.096Z" style="fill:white;"/>
</svg>
