<?xml version="1.0" encoding="UTF-8" standalone="no"?>
<!DOCTYPE svg PUBLIC "-//W3C//DTD SVG 1.1//EN" "http://www.w3.org/Graphics/SVG/1.1/DTD/svg11.dtd">
<svg width="100%" height="100%" viewBox="0 0 512 512" version="1.1" xmlns="http://www.w3.org/2000/svg" xmlns:xlink="http://www.w3.org/1999/xlink" xml:space="preserve" xmlns:serif="http://www.serif.com/" style="fill-rule:evenodd;clip-rule:evenodd;stroke-linejoin:round;stroke-miterlimit:2;">
    <g transform="matrix(0.975403,0,0,0.975403,6.29683,10.1984)">
        <path d="M400,54.1C463,99.1 504,172.7 504,256C504,392.8 393.2,503.7 256.5,504C120,504.3 8.2,393 8,256.4C7.9,173.1 48.9,99.3 111.8,54.2C123.5,45.9 139.8,49.4 146.8,61.9L162.6,90C168.5,100.5 165.7,113.8 156,121C114.5,151.8 88,200.6 88,255.9C87.9,348.2 162.5,424 256,424C347.6,424 424.6,349.8 424,254.9C423.7,203.1 399.3,153.1 355.9,120.9C346.2,113.7 343.5,100.4 349.4,90L365.2,61.9C372.2,49.5 388.4,45.8 400,54.1ZM296,264L296,24C296,10.7 285.3,0 272,0L240,0C226.7,0 216,10.7 216,24L216,264C216,277.3 226.7,288 240,288L272,288C285.3,288 296,277.3 296,264Z" style="fill:rgb(0,166,90);fill-rule:nonzero;"/>
        <path d="M402.386,50.765C388.802,41.045 369.826,45.363 361.629,59.884L345.827,87.987C338.92,100.175 342.09,115.756 353.456,124.193C353.456,124.193 353.456,124.193 353.457,124.193C395.798,155.608 419.607,204.387 419.899,254.924C419.899,254.924 419.899,254.925 419.899,254.926C420.485,347.51 345.364,419.899 256,419.899C164.783,419.899 92.003,345.951 92.101,255.904C92.101,255.903 92.101,255.901 92.101,255.9C92.101,201.949 117.957,154.341 158.444,124.293C158.444,124.293 158.444,124.293 158.444,124.293C169.803,115.861 173.084,100.287 166.175,87.991L150.375,59.89C142.187,45.269 123.119,41.143 109.427,50.855C109.422,50.859 109.416,50.863 109.41,50.867C45.472,96.712 3.797,171.73 3.899,256.405C3.899,256.405 3.899,256.406 3.899,256.406C4.102,395.265 117.751,508.406 256.509,508.101C395.469,507.796 508.101,395.062 508.101,256C508.101,171.325 466.426,96.509 402.386,50.765L402.386,50.765ZM400,54.1C463,99.1 504,172.7 504,256C504,392.8 393.2,503.7 256.5,504C120,504.3 8.2,393 8,256.4C7.9,173.1 48.9,99.3 111.8,54.2C123.5,45.9 139.8,49.4 146.8,61.9L162.6,90C168.5,100.5 165.7,113.8 156,121C114.5,151.8 88,200.6 88,255.9C87.9,348.2 162.5,424 256,424C347.6,424 424.6,349.8 424,254.9C423.7,203.1 399.3,153.1 355.9,120.9C346.2,113.7 343.5,100.4 349.4,90L365.2,61.9C372.2,49.5 388.4,45.8 400,54.1ZM300.101,264L300.101,24C300.101,8.427 287.573,-4.101 272,-4.101C272,-4.101 240,-4.101 240,-4.101C224.427,-4.101 211.899,8.427 211.899,24L211.899,264C211.899,279.573 224.427,292.101 240,292.101L272,292.101C287.573,292.101 300.101,279.573 300.101,264ZM296,264L296,24C296,10.7 285.3,0 272,0L240,0C226.7,0 216,10.7 216,24L216,264C216,277.3 226.7,288 240,288L272,288C285.3,288 296,277.3 296,264Z" style="fill:white;"/>
    </g>
</svg>
